<?xml version="1.0" encoding="UTF-8"?>
<svg id="Layer_1" data-name="Layer 1" xmlns="http://www.w3.org/2000/svg" version="1.1" viewBox="0 0 4775.3 1656.3">
  <defs>
    <style>
      .cls-1 {
        fill: #000;
        stroke-width: 0px;
      }
    </style>
  </defs>
  <path class="cls-1" d="M308.3,273.9s-145,428.8-145,670.3,196.7,438.2,438.2,438.2,438-196.6,438-438.2c0-493.5-731.2-670.3-731.2-670.3h0ZM926.3,813.2c-10.2,4.5-18,9.1-18.8,22-.4,6.5-4.3,13.5-8.4,18.8-16.3,21.2-33.1,42-50.2,62.6-8.2,9.9-17.7,19.1-17.4,33,.3,14.6-.3,29.6,2.8,43.8,10.7,50.2,12.6,100.2,3.6,150.9-1.9,10.7-2.5,21.4-10.8,29.1-21.4,20.1-42.5,37.2-84.1,21.3-34.8-13.4-67.6-7.2-99.3,11.4-16.5,9.7-35.8,18-54.1,10.9-17.7-6.9-35-18.2-48.8-31.4-25.5-24.3-47.7-52.2-72.8-77.1-9.9-9.9-22.8-18.4-35.9-23.1-21.2-7.6-43.7-11.2-65.6-16.9-27.4-7.1-53.5-16.5-71.7-40.3-1.7-2.3-6.8-1.7-9.8-3.3-10.2-5.4-20.6-10.7-30.1-17.3-2.3-1.6-2.7-8.8-1.2-12.1,1.2-2.6,6.9-4.8,10.3-4.5,7.2.8,14.2,3.8,21.5,4.9,3.7.5,10,0,11.2-2.1,12.1-21.6,30.8-21.8,50.5-15.3,27.7,9.1,55,19.4,82.3,29.5,11.4,4.2,16.8,1.2,16.5-10.9-.4-13.6-6.2-25.4-17-32.9-26.6-18.5-53.5-36.9-81.3-53.5-27.3-16.4-54.4-31.9-58.2-68.1-.2-2.1-3.7-4.9-6.2-5.7-15.2-4.9-22.9-17.1-29.1-30.2-5.1-10.8,2.2-20.1,13.6-16.8,9.5,2.8,17.9,9.5,27.1,13.6,5.5,2.4,11.9,5.1,17.5,4.4,20-2.6,39.8-3.2,57.8,7.1,28.9,16.4,51.4,39.8,74.9,63.5,41.6,41.9,57.9,14.7,9.8-50.2-10.4-8.8-140.4-120.1-77.5-174.7-9.1-14.4-18.7-27.4-25.8-41.6s-2.2-15.9,1.4-19.8c3.8-4,14-5.4,19.8-3.4,8.6,3,17.7,8.6,23.1,15.7,8.3,10.8,11.2,26.9,21.1,35.1,10.4,8.6,27.4,8.8,39.5,16,30.7,18.3,41.7,49.2,49.4,82.1,4.1,17.5,6.7,37,16.6,50.9,12.3,17.3,31.3,29.9,47.6,44.3,4.4,3.9,8.6,3.6,11.8-2.6,7.2-14,9.5-28.3,1.8-42.6-5.3-9.7-10.8-19.6-17.9-28-18.1-21.6-21.2-58-15-84.2,2.7-11.5,2-24.5-2.3-38.9-1.1-3.7,1.5-12.1,5.1-14.7,3.5-2.6,12.4-2.7,15.4,0,9.5,8.7,10.6,17.7,19.1,27.5,2.8,3.3,29.9,14.7,40.7,20.6,19.6,10.6,33.5,38.7,37.7,59.4-1,174.3,85,158.2,91.6,147.5,10.4-16.8,20.9-33.6,31.5-50.2,18.9-29.5,44.2-46.9,81-44.1,13.9,1.1,28.7,2.2,38.3-12.3,1.8-2.7,6.2-4.1,9.7-5.1,11.6-3.2,21.5.4,28.5,9.8,7,9.4,2.7,18.3-4.2,25.6-4.7,5-10.3,9.9-16.4,12.6h-.2Z"/>
  <g>
    <path class="cls-1" d="M1560.7,890.3c-9.6-20.1-24.5-36.1-45-48.1-20.5-11.9-48.4-17.9-83.9-17.9s-52.5,3.9-77.8,11.8c-25.2,7.9-49.1,19.3-71.6,34.3-14.5,9.7-28.3,20.8-41.4,33.3l-8.8-35.9c-4.8-19.5-22.2-33.2-42.3-33.2h0c-24.1,0-43.5,19.5-43.5,43.5v404.5c0,28.2,22.9,51.1,51.1,51.1h0c28.2,0,51.1-22.9,51.1-51.1v-283.8c7.1-8.8,15.2-17.2,24.5-25.1,17.7-15,37.9-26.9,60.4-35.8,22.5-8.8,44.7-13.3,66.5-13.3s40.7,6.1,56.8,18.4c16,12.3,24,36.2,24,71.6v268c0,28.2,22.9,51.1,51.1,51.1h0c28.2,0,51.1-22.9,51.1-51.1v-246.5c0-26.6-1.4-52.5-4.1-77.7s-8.9-47.9-18.4-68h.2Z"/>
    <path class="cls-1" d="M2052.8,857c-36.8-21.8-79.8-32.7-128.9-32.7s-91,10.9-127.9,32.7c-36.8,21.8-65.5,52.2-85.9,91-20.5,38.9-30.7,84.6-30.7,137.1s10.2,97.2,30.7,136.1,49.1,69.1,85.9,90.5c36.8,21.5,79.4,32.2,127.9,32.2s101.1-10.7,137.6-32.2c22.9-13.5,43.3-31.3,61-53.3,17.4-21.7,11.7-53.9-11.9-68.7h0c-19.4-12.2-44.9-8.6-60,8.7-10.4,11.9-21.6,22.6-33.6,32-21.8,17.1-52.9,25.6-93.1,25.6s-77.8-13.5-102.3-40.4c-23.3-25.5-35.5-59.4-36.7-101.8h382.5c.7-4.1,1.2-8.7,1.5-13.8.3-5.1.5-10.1.5-14.8,0-52.5-10.2-98.2-30.7-137.1-20.5-38.9-49.1-69.2-85.9-91h0ZM1822.6,947.6c25.2-26.9,59-40.4,101.3-40.4s83.2,16.7,106.4,50.1c13.6,19.7,23.2,42.5,28.8,68.5h-272.5c4.3-31.1,16.3-57.2,36-78.3h0Z"/>
    <path class="cls-1" d="M2645.6,982.4c-32.4-19.4-77.2-36.3-134.5-50.6-56.6-13.6-94.6-29.7-114.1-48.1-19.4-18.4-29.2-40.2-29.2-65.5s10.4-51.8,31.2-67.5,51-23.5,90.5-23.5,50.3,5.6,73.1,16.9c13.3,6.5,26.3,15.6,39,27.1,17.5,15.8,43.4,18.1,63.2,5.4h0c28.6-18.4,32-58.7,7.2-81.9-14.6-13.6-30.4-25.4-47.5-35.5-35.5-20.8-80.5-31.2-135-31.2s-85.2,8-118.7,24c-33.4,16-59,38.2-76.7,66.5s-26.6,61.6-26.6,99.7,5.8,59.2,17.4,85.4c11.6,26.3,32.2,49.5,61.9,69.6s71.1,37,124.3,50.6c42.3,10.2,75,21.5,98.2,33.8s39.4,25.6,48.6,39.9c9.2,14.3,13.8,31,13.8,50.1,0,32.1-10.7,57.3-32.2,75.7-21.5,18.4-53,27.6-94.6,27.6s-78.8-9.5-107.4-28.6c-19.2-12.8-37.4-31-54.5-54.6-15.2-21.1-43.7-27.5-66.4-14.7h0c-25.1,14.2-33.5,46.6-18.2,71,13.7,21.7,29,40,45.9,55.1,28,24.9,58.8,42.8,92.6,53.7,33.7,10.9,68.7,16.4,104.9,16.4s88-9,122.7-27.1c34.8-18.1,61.7-42.1,80.8-72.1s28.6-63.8,28.6-101.3-6.6-69.7-19.9-96.7c-13.3-26.9-36.1-50.1-68.5-69.6h0Z"/>
    <path class="cls-1" d="M3278.3,733.3c26.6,0,48.1-21.5,48.1-48.1h0c0-26.6-21.5-48.1-48.1-48.1h-452.1c-26.6,0-48.1,21.5-48.1,48.1h0c0,26.6,21.5,48.1,48.1,48.1h169.8v549.3c0,28.2,22.9,51.1,51.1,51.1h0c28.2,0,51.1-22.9,51.1-51.1v-549.3h180.1Z"/>
    <path class="cls-1" d="M3934.6,729.2c-32.4-32.1-70.4-56.9-114-74.7-43.7-17.7-91-26.6-142.2-26.6s-99.8,8.9-143.8,26.6c-44,17.7-82.3,42.6-115.1,74.7-32.7,32.1-58.2,69.9-76.2,113.5-18.1,43.6-27.1,91.4-27.1,143.2s9,98.6,27.1,142.2c5.4,13.1,11.5,25.7,18.3,37.8l-90.8,80.3c-19.9,17.6-21.8,48-4.2,67.9s48,21.8,67.9,4.2l85.5-75.6c32.6,32.2,70.8,57.1,114.6,74.7,27.1,10.9,55.7,18.5,85.8,22.7,18.7,2.6,38.1,3.9,58,3.9s37.1-1.2,54.9-3.6c30.6-4.1,59.7-11.8,87.3-23,43.6-17.7,81.7-42.8,114-75.2,32.4-32.4,57.6-70.4,75.7-114.1,18.1-43.6,27.1-91,27.1-142.2s-9-99.6-27.1-143.2c-18.1-43.6-43.3-81.5-75.7-113.5h0ZM3899.8,1119.4c-22.2,39.2-52.3,70.1-90.5,92.6s-81.8,33.8-130.9,33.8-93.1-11.3-132-33.8c-18.3-10.6-34.8-23-49.5-37.3-16.5-16.1-30.7-34.5-42.6-55.3-4.6-8-8.7-16.1-12.3-24.5-14.3-33-21.4-69.3-21.4-109s11.3-95.1,33.7-134c22.5-38.9,53.2-69.5,92.1-92.1,38.9-22.5,82.9-33.8,132-33.8s92.7,11.3,130.9,33.8,68.4,53.2,90.5,92.1c22.2,38.9,33.3,83.5,33.3,134s-11.1,94.3-33.3,133.5h0Z"/>
    <path class="cls-1" d="M4582.3,753.7c-19.8-35.5-47.4-63.8-82.9-84.9-35.5-21.1-77.1-31.7-124.8-31.7h-246.5v645.5c0,28.2,22.9,51.1,51.1,51.1h0c28.2,0,51.1-22.9,51.1-51.1v-173.9h143.2c47.7,0,89.5-10.4,125.3-31.2,35.8-20.8,63.6-49.1,83.4-84.9,19.8-35.8,29.7-75.5,29.7-119.2s-9.9-84.2-29.7-119.7h0ZM4464.6,975.7c-27.3,24.6-63.4,36.8-108.4,36.8h-125.8v-279.3h126.8c45,0,81,11.8,107.9,35.3s40.4,58.5,40.4,104.9-13.7,77.7-40.9,102.3Z"/>
  </g>
</svg>